<svg width="127" height="43" viewBox="0 0 127 43" fill="none" xmlns="http://www.w3.org/2000/svg">
<path d="M64.6867 14.392H70.8787V16.136H64.6867V14.392ZM64.0467 20.008H72.6387V21.832H64.0467V20.008ZM67.4387 18.488H69.4227V26.376C69.4227 27.352 69.2147 27.848 68.5587 28.136C67.8867 28.408 66.9907 28.456 65.7267 28.456C65.6307 27.912 65.3427 27.128 65.0867 26.616C65.8867 26.648 66.8307 26.648 67.0867 26.648C67.3427 26.648 67.4387 26.568 67.4387 26.344V18.488ZM70.1427 14.392H70.6547L71.1027 14.296L72.3987 15.224C71.4227 16.712 69.9987 18.488 68.5107 19.56C68.2707 19.24 67.7427 18.744 67.4387 18.488C68.5267 17.544 69.6467 15.864 70.1427 14.808V14.392ZM57.8867 22.136L59.0387 20.808C60.7987 22.296 63.3907 24.472 64.5747 25.848L63.3107 27.448C62.1747 26.008 59.6787 23.752 57.8867 22.136ZM57.8867 22.136C58.4947 19.928 59.1187 16.296 59.2947 13.448L61.1987 13.544C60.9267 16.568 60.2547 20.296 59.6307 22.728L57.8867 22.136ZM61.9507 15.688H63.7427V17.496C63.7427 20.568 63.3107 25.288 58.9267 28.488C58.6547 28.072 57.9987 27.432 57.5827 27.128C61.5987 24.328 61.9507 20.152 61.9507 17.464V15.688ZM57.5667 16.888C59.3907 16.824 62.0627 16.696 64.5907 16.552L64.5747 18.264C62.1747 18.44 59.6147 18.6 57.7427 18.712L57.5667 16.888ZM77.7427 23.912H92.2067V25.544H77.7427V23.912ZM79.3107 21.128H88.8947V22.616H79.3107V21.128ZM83.9187 23.224H85.9507V26.68C85.9507 27.608 85.6787 28.008 84.9107 28.248C84.1587 28.456 83.1027 28.456 81.6947 28.456C81.5827 27.96 81.2947 27.32 81.0387 26.872C81.9667 26.92 83.2307 26.92 83.5027 26.904C83.8067 26.888 83.9187 26.824 83.9187 26.6V23.224ZM88.4787 21.112H89.0067L89.4227 21.032L90.6387 22.104C89.0067 22.984 86.9267 23.768 84.8147 24.264C84.6067 23.96 84.1587 23.464 83.9187 23.208C85.6147 22.808 87.5667 22.056 88.4787 21.464V21.112ZM81.7427 18.264V19.16H88.1907V18.264H81.7427ZM79.8227 16.952H90.2227V20.472H79.8227V16.952ZM77.9667 14.6H91.9347V16.216H77.9667V14.6ZM83.5507 13.624L85.5187 13.288C85.8227 13.912 86.1107 14.744 86.1907 15.304L84.1267 15.688C84.0467 15.144 83.8067 14.28 83.5507 13.624ZM102.207 21.816V22.648H107.247V21.816H102.207ZM100.431 20.648H109.151V23.832H100.431V20.648ZM99.3107 24.472H110.687V28.456H108.783V25.8H101.119V28.456H99.3107V24.472ZM100.431 26.728H109.583V28.072H100.431V26.728ZM97.9187 18.6H111.711V21.72H109.775V20.056H99.7587V21.72H97.9187V18.6ZM103.279 14.104L104.815 14.6C104.303 15.224 103.791 15.832 103.391 16.232L102.287 15.784C102.639 15.304 103.055 14.584 103.279 14.104ZM100.431 16.872L101.535 15.832C102.367 16.28 103.551 16.968 104.159 17.416L103.007 18.584C102.431 18.12 101.279 17.384 100.431 16.872ZM100.623 13.416H102.287C102.143 16.328 101.583 17.976 98.3347 18.872C98.1907 18.456 97.7587 17.832 97.4227 17.528C100.175 16.872 100.511 15.72 100.623 13.416ZM110.383 14.072L112.031 14.616C111.471 15.24 110.927 15.88 110.511 16.296L109.343 15.832C109.711 15.32 110.159 14.584 110.383 14.072ZM107.359 16.936L108.431 15.784C109.503 16.296 111.087 17.096 111.903 17.624L110.767 18.936C110.015 18.392 108.463 17.528 107.359 16.936ZM107.487 13.416H109.215C109.087 16.328 108.543 17.96 105.199 18.792C105.071 18.376 104.639 17.72 104.287 17.384C107.087 16.776 107.391 15.704 107.487 13.416ZM97.7267 14.536L98.8627 13.688C99.2947 14.152 99.8867 14.792 100.159 15.176L98.9587 16.136C98.7027 15.72 98.1427 15.032 97.7267 14.536ZM104.527 14.52L105.663 13.672C106.111 14.136 106.687 14.76 106.959 15.16L105.759 16.104C105.503 15.688 104.943 15.016 104.527 14.52ZM103.535 22.984L105.183 23.512C104.815 24.136 104.495 24.744 104.239 25.176L102.911 24.712C103.119 24.216 103.407 23.48 103.535 22.984Z" fill="#F0E6E6"/>
<path fill-rule="evenodd" clip-rule="evenodd" d="M21.3023 0L35.5611 16.4398H28.6766L39.4264 28.8379H32.1786L42.6045 40.8888H0L10.4259 28.8379H3.17816L13.9279 16.4398H7.04351L21.3023 0Z" fill="white"/>
<path d="M21.2891 29.8243L26.9932 39.7042H15.5849L21.2891 29.8243Z" fill="white"/>
<path fill-rule="evenodd" clip-rule="evenodd" d="M19.3019 23.5501L20.2397 23L21.3069 24.8193L21.35 24.7446L21.3854 24.8059L22.4446 23L23.3824 23.5501L22.0106 25.8889L30.6999 40.9393H12L20.6816 25.9023L19.3019 23.5501Z" fill="#57835E"/>
<path fill-rule="evenodd" clip-rule="evenodd" d="M21.132 33.1309L21.469 35.782L23.1377 34.2771L22.3116 36.1408L21.8981 36.9236L21.132 37.3356L20.3659 36.9236L19.9571 36.1408L19.1263 34.2771L20.8044 35.782L21.132 33.1309ZM21.8669 37.8687L24.494 39.1335L24.2181 39.7067L21.1336 38.2217L18.049 39.7067L17.7731 39.1335L20.4002 37.8687L17.7731 36.6039L18.0491 36.0306L21.1336 37.5156L24.218 36.0306L24.494 36.6039L21.8669 37.8687Z" fill="white"/>
<path fill-rule="evenodd" clip-rule="evenodd" d="M18.4773 12.7066C18.34 12.7251 18.2024 12.7571 18.0662 12.8035C16.9461 13.1849 16.3436 14.3916 16.7206 15.4989C17.0333 16.4173 17.9217 16.9788 18.8548 16.9259C18.6119 17.1299 18.3273 17.2934 18.0084 17.402C16.6424 17.8671 15.1623 17.1495 14.7026 15.7992C14.2428 14.4489 14.9775 12.9772 16.3435 12.5121C17.081 12.261 17.8518 12.3547 18.4773 12.7066Z" fill="#57835E"/>
<path fill-rule="evenodd" clip-rule="evenodd" d="M26.6763 13.2954L26.2827 11.8392L25.5989 13.1838L24.4246 12.237L24.6617 13.7267L23.1551 13.651L24.2225 14.7169L22.9592 15.5411L24.4493 15.776L23.9117 17.1855L25.2552 16.4996L25.6488 17.9559L26.3326 16.6113L27.507 17.5581L27.2699 16.0684L28.7765 16.1441L27.709 15.0782L28.9724 14.2539L27.4823 14.019L28.0199 12.6096L26.6763 13.2954ZM25.59 15.8109C26.1551 16.044 26.8023 15.775 27.0354 15.2098C27.2686 14.6447 26.9995 13.9976 26.4344 13.7644C25.8693 13.5313 25.2222 13.8004 24.989 14.3655C24.7558 14.9306 25.0249 15.5777 25.59 15.8109Z" fill="#57835E"/>
<path d="M21.5 6L22.0613 7.72746H23.8776L22.4082 8.79508L22.9695 10.5225L21.5 9.45492L20.0305 10.5225L20.5918 8.79508L19.1224 7.72746H20.9387L21.5 6Z" fill="#57835E"/>
</svg>
